<svg id="svg" version="1.1" width="612" height="792" xmlns="http://www.w3.org/2000/svg" xmlns:xlink="http://www.w3.org/1999/xlink" style="display: block;"><g id="svgg"><path id="path0" d="M136.275 233.333 C 131.508 238.128,131.221 238.562,132.816 238.562 C 134.254 238.562,135.178 237.657,138.156 233.333 C 140.137 230.458,141.694 228.105,141.615 228.105 C 141.537 228.105,139.133 230.458,136.275 233.333 M93.856 241.993 C 94.057 243.521,94.754 249.183,95.405 254.575 L 96.588 264.379 96.660 251.797 L 96.732 239.216 95.111 239.216 C 93.581 239.216,93.510 239.373,93.856 241.993 " stroke="none" fill="#c88a12" fill-rule="evenodd"></path><path id="path1" d="M136.601 232.353 L 129.762 239.216 132.163 239.216 C 133.483 239.216,134.712 238.975,134.894 238.680 C 135.076 238.386,134.285 238.271,133.135 238.425 C 131.064 238.703,131.083 238.667,135.239 234.422 C 137.546 232.065,139.752 230.195,140.141 230.265 C 140.531 230.335,140.779 230.033,140.693 229.595 C 140.606 229.156,141.087 228.502,141.760 228.142 C 142.740 227.618,144.213 225.490,143.595 225.490 C 143.510 225.490,140.363 228.578,136.601 232.353 M94.970 239.034 L 96.803 239.309 96.659 254.949 C 96.579 263.551,96.711 270.785,96.950 271.024 C 97.190 271.264,97.386 264.058,97.386 255.011 L 97.386 238.562 95.261 238.660 C 93.234 238.753,93.221 238.770,94.970 239.034 " stroke="none" fill="#d79917" fill-rule="evenodd"></path><path id="path2" d="M96.964 224.957 C 97.209 250.547,97.273 271.347,97.106 271.180 C 96.939 271.013,95.998 263.606,95.015 254.719 L 93.227 238.562 78.151 238.562 L 63.075 238.562 80.241 255.719 L 97.407 272.876 105.753 264.379 C 110.344 259.706,120.805 248.971,129.000 240.523 C 137.195 232.075,143.666 225.605,143.381 226.144 C 143.095 226.683,141.017 229.771,138.762 233.007 L 134.663 238.889 145.856 239.068 C 152.012 239.167,157.215 239.082,157.417 238.879 C 157.855 238.442,97.991 178.431,97.118 178.431 C 96.755 178.431,96.694 196.830,96.964 224.957 " stroke="none" fill="#ffc222" fill-rule="evenodd"></path><path id="path3" d="M245.870 272.386 C 246.100 293.156,246.222 293.826,250.260 296.544 C 253.642 298.821,262.092 298.780,262.092 296.487 C 262.092 292.201,261.376 290.850,259.106 290.850 C 255.441 290.850,254.902 289.322,254.902 278.940 L 254.902 269.935 259.409 269.935 L 263.915 269.935 264.147 280.229 C 264.407 291.773,265.016 293.704,269.316 296.622 C 272.800 298.987,279.835 298.491,283.949 295.591 L 286.928 293.491 286.928 295.765 L 286.928 298.039 291.503 298.039 L 296.078 298.039 296.078 280.719 L 296.078 263.399 291.176 263.399 L 286.275 263.399 286.275 274.193 L 286.275 284.987 284.150 287.287 C 281.246 290.433,278.067 290.944,275.441 288.687 L 273.529 287.044 273.325 275.221 L 273.120 263.399 264.011 263.399 L 254.902 263.399 254.902 258.497 L 254.902 253.595 250.282 253.595 L 245.662 253.595 245.870 272.386 M123.619 263.600 C 109.581 268.933,109.328 291.485,123.248 296.693 C 129.373 298.985,143.796 298.171,143.787 295.534 C 143.777 292.613,142.383 289.441,141.295 289.865 C 134.726 292.420,124.140 290.132,122.410 285.784 L 121.565 283.660 133.753 283.660 L 145.941 283.660 145.559 279.106 C 144.529 266.820,134.256 259.560,123.619 263.600 M163.518 263.703 C 162.325 264.240,160.487 265.294,159.433 266.045 L 157.516 267.409 157.516 265.404 L 157.516 263.399 153.268 263.399 L 149.020 263.399 149.020 280.719 L 149.020 298.039 153.595 298.039 L 158.170 298.039 158.170 286.863 L 158.170 275.686 160.392 273.464 C 162.253 271.603,163.087 271.242,165.520 271.242 C 170.603 271.242,170.881 271.974,171.119 286.015 L 171.323 298.039 175.904 298.039 L 180.485 298.039 180.275 284.150 C 180.045 268.920,179.713 267.509,175.647 264.478 C 173.303 262.731,166.622 262.304,163.518 263.703 M187.908 263.328 C 185.974 263.622,185.308 264.023,185.349 264.869 C 185.379 265.498,185.452 267.014,185.512 268.237 L 185.621 270.461 193.438 270.361 C 202.314 270.248,203.620 270.839,204.343 275.295 L 204.723 277.636 196.940 277.870 C 186.124 278.196,183.355 280.192,183.355 287.666 C 183.355 297.270,193.366 301.086,204.085 295.568 C 204.355 295.429,204.575 295.929,204.575 296.678 C 204.575 297.930,204.949 298.039,209.217 298.039 L 213.860 298.039 213.608 284.804 C 213.330 270.161,213.003 268.815,208.988 265.784 C 205.247 262.961,196.797 261.977,187.908 263.328 M228.343 263.457 C 212.506 268.047,211.782 291.730,227.317 297.023 C 232.600 298.824,243.243 298.115,243.662 295.936 C 244.295 292.649,242.533 289.620,240.352 290.245 C 230.761 292.996,223.017 286.310,225.427 277.361 C 226.809 272.227,231.925 269.527,238.751 270.329 C 242.717 270.796,242.901 270.660,243.515 266.819 C 243.939 264.170,243.928 264.151,241.415 263.454 C 238.413 262.620,231.224 262.622,228.343 263.457 M305.713 263.679 C 301.266 265.266,299.345 267.983,299.349 272.680 C 299.353 277.978,301.031 279.452,313.235 284.883 C 322.453 288.985,315.721 292.861,304.575 289.869 C 299.940 288.625,300.075 288.608,299.335 290.552 C 297.650 294.986,297.710 295.187,301.093 296.382 C 312.479 300.405,325.151 297.133,326.524 289.816 C 327.645 283.839,325.002 280.807,315.162 276.782 C 303.318 271.938,308.469 267.734,322.293 270.961 C 324.083 271.379,326.389 265.997,325.011 264.619 C 323.218 262.826,309.918 262.179,305.713 263.679 M132.868 270.644 C 134.551 271.411,136.601 274.397,136.601 276.081 C 136.601 276.973,135.558 277.124,129.412 277.124 C 121.391 277.124,120.700 276.621,123.620 272.910 C 125.849 270.076,129.602 269.156,132.868 270.644 M204.575 284.335 C 204.575 287.973,200.963 291.503,197.240 291.503 C 192.091 291.503,190.408 286.159,194.977 284.318 C 197.010 283.499,204.575 283.512,204.575 284.335 M328.105 293.464 C 328.105 293.824,328.399 294.118,328.758 294.118 C 329.118 294.118,329.412 295.000,329.412 296.078 C 329.412 297.157,329.706 298.039,330.065 298.039 C 330.425 298.039,330.719 297.157,330.719 296.078 C 330.719 293.414,332.014 293.571,332.072 296.242 C 332.111 298.022,332.209 298.154,332.680 297.059 C 333.160 295.941,333.248 295.917,333.287 296.895 C 333.340 298.214,334.374 298.429,334.861 297.222 C 335.125 296.569,335.201 296.569,335.243 297.222 C 335.376 299.343,336.601 297.723,336.601 295.425 C 336.601 292.575,335.572 291.946,334.712 294.270 L 334.172 295.730 333.709 294.270 C 333.223 292.741,328.105 292.004,328.105 293.464 " stroke="none" fill="#515356" fill-rule="evenodd"></path><path id="path4" d="M118.137 317.465 L 116.340 317.734 116.340 325.860 C 116.340 333.551,116.410 333.987,117.647 333.987 C 118.780 333.987,118.954 333.551,118.954 330.719 L 118.954 327.451 121.455 327.451 C 124.588 327.451,126.797 325.339,126.797 322.343 C 126.797 319.998,124.861 317.647,122.929 317.647 C 122.240 317.647,121.284 317.546,120.805 317.422 C 120.326 317.298,119.126 317.317,118.137 317.465 M134.198 318.693 C 133.784 319.771,135.116 321.051,136.275 320.690 C 136.634 320.578,137.022 319.847,137.137 319.066 C 137.391 317.342,134.841 317.019,134.198 318.693 M206.536 322.467 C 206.536 331.592,207.838 333.987,212.800 333.987 C 217.857 333.987,218.954 332.243,218.954 324.213 C 218.954 318.083,218.867 317.647,217.647 317.647 C 216.437 317.647,216.340 318.083,216.340 323.529 C 216.340 328.540,216.146 329.605,215.033 330.719 C 211.713 334.038,209.804 331.454,209.804 323.641 C 209.804 317.683,209.794 317.647,208.170 317.647 C 206.575 317.647,206.536 317.761,206.536 322.467 M232.680 318.916 C 232.680 320.456,233.513 321.056,234.908 320.520 C 236.653 319.851,236.197 317.647,234.314 317.647 C 233.132 317.647,232.680 317.998,232.680 318.916 M273.491 318.363 C 273.247 318.757,273.496 319.527,274.043 320.075 C 275.234 321.266,276.471 320.676,276.471 318.916 C 276.471 317.527,274.260 317.118,273.491 318.363 M171.895 320.588 C 171.895 321.605,171.525 322.222,170.915 322.222 C 170.376 322.222,169.935 322.663,169.935 323.203 C 169.935 323.742,170.376 324.183,170.915 324.183 C 171.683 324.183,171.895 325.076,171.895 328.301 C 171.895 332.874,172.561 333.987,175.294 333.987 C 176.653 333.987,177.124 333.669,177.124 332.752 C 177.124 331.978,176.698 331.552,175.980 331.609 C 175.033 331.684,174.803 331.052,174.641 327.941 C 174.462 324.524,174.566 324.183,175.784 324.183 C 176.540 324.183,177.124 323.755,177.124 323.203 C 177.124 322.658,176.543 322.222,175.817 322.222 C 174.858 322.222,174.510 321.786,174.510 320.588 C 174.510 319.390,174.161 318.954,173.203 318.954 C 172.244 318.954,171.895 319.390,171.895 320.588 M278.431 320.588 C 278.431 321.487,278.137 322.222,277.778 322.222 C 277.418 322.222,277.124 322.663,277.124 323.203 C 277.124 323.742,277.418 324.183,277.778 324.183 C 278.137 324.183,278.431 325.634,278.431 327.408 C 278.431 332.457,279.264 333.987,282.010 333.987 C 283.833 333.987,284.314 333.729,284.314 332.752 C 284.314 331.978,283.888 331.552,283.170 331.609 C 281.080 331.774,281.148 324.441,283.240 324.041 C 284.689 323.764,285.002 324.145,286.538 328.060 C 288.658 333.462,288.654 334.227,286.495 335.799 C 284.825 337.015,284.647 339.216,286.218 339.216 C 288.379 339.216,295.425 326.589,295.425 322.714 C 295.425 320.660,292.485 322.858,291.556 325.607 C 290.127 329.838,289.962 329.848,288.585 325.797 L 287.369 322.222 284.534 322.222 C 281.946 322.222,281.699 322.080,281.699 320.588 C 281.699 319.281,281.373 318.954,280.065 318.954 C 278.758 318.954,278.431 319.281,278.431 320.588 M123.156 320.635 C 125.027 322.506,123.386 325.490,120.487 325.490 C 119.106 325.490,118.954 325.199,118.954 322.549 C 118.954 319.305,120.927 318.406,123.156 320.635 M131.100 322.135 C 130.908 322.446,130.008 322.559,129.101 322.385 L 127.451 322.070 127.451 328.028 C 127.451 333.551,127.547 333.987,128.758 333.987 C 129.869 333.987,130.065 333.551,130.065 331.088 C 130.065 327.337,131.057 324.797,132.688 324.370 C 134.399 323.923,134.424 321.569,132.718 321.569 C 132.021 321.569,131.292 321.823,131.100 322.135 M142.605 322.134 C 142.132 322.433,141.029 322.541,140.154 322.374 L 138.562 322.070 138.562 328.028 C 138.562 333.948,138.573 333.987,140.196 333.987 C 141.766 333.987,141.830 333.826,141.830 329.869 C 141.830 325.650,142.520 324.183,144.505 324.183 C 145.984 324.183,146.405 325.499,146.405 330.119 C 146.405 333.551,146.552 333.987,147.712 333.987 C 149.803 333.987,149.676 324.064,147.567 322.586 C 145.975 321.471,143.942 321.285,142.605 322.134 M152.237 323.479 C 149.695 326.021,149.558 330.009,151.931 332.383 C 154.125 334.576,159.477 334.750,159.477 332.628 C 159.477 331.464,159.201 331.329,157.559 331.690 C 156.112 332.008,155.309 331.780,154.291 330.762 C 151.503 327.974,153.573 323.744,157.446 324.312 C 158.898 324.525,159.463 324.309,159.687 323.452 C 160.372 320.831,154.865 320.851,152.237 323.479 M161.388 323.479 C 158.845 326.021,158.708 330.009,161.081 332.383 C 163.279 334.580,169.281 334.776,169.281 332.650 C 169.281 331.483,168.998 331.366,167.055 331.731 C 165.253 332.069,164.536 331.856,163.297 330.617 L 161.765 329.085 165.850 328.890 L 169.935 328.696 169.935 326.439 C 169.935 321.651,164.944 319.922,161.388 323.479 M179.977 322.333 C 178.239 323.174,177.124 325.536,177.124 328.374 C 177.124 335.980,187.853 336.190,188.708 328.600 C 189.289 323.446,184.612 320.089,179.977 322.333 M193.585 322.134 C 193.113 322.433,191.962 322.532,191.027 322.354 C 189.623 322.085,189.404 322.225,189.762 323.159 C 190.001 323.781,190.196 326.472,190.196 329.138 C 190.196 333.551,190.314 333.987,191.503 333.987 C 192.672 333.987,192.810 333.551,192.810 329.869 C 192.810 325.650,193.501 324.183,195.486 324.183 C 196.964 324.183,197.386 325.499,197.386 330.119 C 197.386 333.551,197.533 333.987,198.693 333.987 C 200.783 333.987,200.657 324.064,198.547 322.586 C 196.955 321.471,194.923 321.285,193.585 322.134 M223.039 322.041 L 220.915 322.305 220.915 328.146 C 220.915 333.551,221.013 333.987,222.222 333.987 C 223.373 333.987,223.529 333.551,223.529 330.349 C 223.529 326.140,224.359 324.183,226.144 324.183 C 227.929 324.183,228.758 326.140,228.758 330.349 C 228.758 333.551,228.915 333.987,230.065 333.987 C 232.486 333.987,231.702 323.773,229.151 322.069 C 228.417 321.579,226.822 321.572,223.039 322.041 M248.663 323.173 C 246.400 325.436,246.374 330.501,248.613 332.605 C 250.632 334.502,256.382 334.411,256.749 332.476 C 256.945 331.448,256.663 331.351,254.605 331.737 C 252.804 332.075,251.928 331.903,250.954 331.022 C 248.918 329.180,249.410 328.758,253.595 328.758 L 257.516 328.758 257.516 326.768 C 257.516 324.111,254.959 321.569,252.288 321.569 C 251.014 321.569,249.674 322.162,248.663 323.173 M261.819 322.135 C 261.627 322.446,260.681 322.550,259.718 322.366 C 258.135 322.063,258.008 322.181,258.387 323.597 C 258.617 324.459,258.810 327.149,258.815 329.575 C 258.823 333.514,258.961 333.987,260.101 333.987 C 261.223 333.987,261.402 333.451,261.571 329.575 C 261.740 325.723,261.951 325.082,263.235 324.518 C 265.063 323.716,265.210 321.569,263.437 321.569 C 262.740 321.569,262.011 321.823,261.819 322.135 M266.013 322.876 C 263.876 325.013,264.670 327.390,267.979 328.760 C 270.904 329.972,270.336 331.746,267.086 331.550 C 265.055 331.428,264.654 331.602,264.830 332.531 C 265.092 333.913,270.182 334.484,271.617 333.293 C 273.534 331.702,272.779 328.193,270.261 326.993 C 267.377 325.617,267.153 323.914,269.910 324.319 C 271.221 324.511,271.966 324.288,272.219 323.628 C 273.078 321.391,268.101 320.788,266.013 322.876 M134.641 328.105 C 134.641 333.551,134.737 333.987,135.948 333.987 C 137.158 333.987,137.255 333.551,137.255 328.105 C 137.255 322.658,137.158 322.222,135.948 322.222 C 134.737 322.222,134.641 322.658,134.641 328.105 M232.680 328.105 C 232.680 333.943,232.692 333.987,234.314 333.987 C 235.929 333.987,235.948 333.921,235.989 328.268 L 236.031 322.549 238.184 328.105 C 239.798 332.268,240.667 333.710,241.652 333.858 C 243.007 334.062,242.984 334.102,246.463 325.327 L 247.693 322.222 246.102 322.222 C 244.747 322.222,244.343 322.754,243.378 325.817 C 242.755 327.794,242.058 329.412,241.830 329.412 C 241.602 329.412,240.905 327.794,240.282 325.817 L 239.149 322.222 235.914 322.222 L 232.680 322.222 232.680 328.105 M273.856 328.105 C 273.856 333.551,273.953 333.987,275.163 333.987 C 276.374 333.987,276.471 333.551,276.471 328.105 C 276.471 322.658,276.374 322.222,275.163 322.222 C 273.953 322.222,273.856 322.658,273.856 328.105 M167.320 325.840 C 167.320 326.523,166.563 326.797,164.683 326.797 C 162.288 326.797,162.107 326.682,162.715 325.547 C 163.899 323.335,167.320 323.553,167.320 325.840 M253.875 324.556 C 255.514 326.196,255.088 326.797,252.288 326.797 C 249.354 326.797,248.971 326.056,251.126 324.547 C 252.884 323.315,252.633 323.314,253.875 324.556 M185.309 325.748 C 187.627 329.286,183.569 333.997,180.969 330.786 C 179.591 329.084,179.409 327.328,180.415 325.447 C 181.369 323.666,184.053 323.830,185.309 325.748 " stroke="none" fill="#77787b" fill-rule="evenodd"></path></g></svg>